<?xml version="1.0" encoding="utf-8"?>
<svg version="1.1" xmlns:xlink="http://www.w3.org/1999/xlink" width="12px" height="12px" viewBox="330 1044.5  12 12" xmlns="http://www.w3.org/2000/svg">
  <path d="M 336 1044.5  C 339.36 1044.5  342 1047.14  342 1050.5  C 342 1053.86  339.36 1056.5  336 1056.5  C 332.64 1056.5  330 1053.86  330 1050.5  C 330 1047.14  332.64 1044.5  336 1044.5  Z " fill-rule="nonzero" fill="#ffffff" stroke="none" />
  <path d="M 336 1045  C 339.08 1045  341.5 1047.42  341.5 1050.5  C 341.5 1053.58  339.08 1056  336 1056  C 332.92 1056  330.5 1053.58  330.5 1050.5  C 330.5 1047.42  332.92 1045  336 1045  Z " stroke-width="1" stroke="#797979" fill="none" />
  <path d="M 336 1053.5  C 334.32 1053.5  333 1052.18  333 1050.5  C 333 1048.82  334.32 1047.5  336 1047.5  C 337.68 1047.5  339 1048.82  339 1050.5  C 339 1052.18  337.68 1053.5  336 1053.5  " fill-rule="nonzero" fill="#797979" stroke="none" />
</svg>