<?xml version="1.0" encoding="utf-8"?>
<svg version="1.1" xmlns:xlink="http://www.w3.org/1999/xlink" width="84px" height="28px" xmlns="http://www.w3.org/2000/svg">
  <defs>
    <mask fill="white" id="clip12">
      <path d="M 0 28  L 0 0  L 27 0  L 34 0  L 36 0  L 54 0  L 84 0  L 84 28  L 65 28  L 45 28  L 0 28  Z " fill-rule="evenodd" />
    </mask>
  </defs>
  <g transform="matrix(1 0 0 1 -124 -565 )">
    <path d="M 0 28  L 0 0  L 27 0  L 34 0  L 36 0  L 54 0  L 84 0  L 84 28  L 65 28  L 45 28  L 0 28  Z " fill-rule="nonzero" fill="#80ffff" stroke="none" transform="matrix(1 0 0 1 124 565 )" />
    <path d="M 0 28  L 0 0  L 27 0  L 34 0  L 36 0  L 54 0  L 84 0  L 84 28  L 65 28  L 45 28  L 0 28  Z " stroke-width="2" stroke="#797979" fill="none" transform="matrix(1 0 0 1 124 565 )" mask="url(#clip12)" />
  </g>
</svg>