<?xml version="1.0" encoding="utf-8"?>
<svg version="1.1" xmlns:xlink="http://www.w3.org/1999/xlink" width="170px" height="17px" xmlns="http://www.w3.org/2000/svg">
  <defs>
    <mask fill="white" id="clip6">
      <path d="M 0 17  L 0 0  L 36.3333333333321 0  L 67.6666666666679 0  L 170 0  L 170 17  L 0 17  Z " fill-rule="evenodd" />
    </mask>
  </defs>
  <g transform="matrix(1 0 0 1 -119 -225 )">
    <path d="M 0 17  L 0 0  L 36.3333333333321 0  L 67.6666666666679 0  L 170 0  L 170 17  L 0 17  Z " fill-rule="nonzero" fill="#ffffff" stroke="none" transform="matrix(1 0 0 1 119 225 )" />
    <path d="M 0 17  L 0 0  L 36.3333333333321 0  L 67.6666666666679 0  L 170 0  L 170 17  L 0 17  Z " stroke-width="2" stroke="#797979" fill="none" transform="matrix(1 0 0 1 119 225 )" mask="url(#clip6)" />
  </g>
</svg>