<?xml version="1.0" encoding="utf-8"?>
<svg version="1.1" xmlns:xlink="http://www.w3.org/1999/xlink" width="12px" height="12px" viewBox="256 886.5  12 12" xmlns="http://www.w3.org/2000/svg">
  <path d="M 262 886.5  C 265.36 886.5  268 889.14  268 892.5  C 268 895.86  265.36 898.5  262 898.5  C 258.64 898.5  256 895.86  256 892.5  C 256 889.14  258.64 886.5  262 886.5  Z " fill-rule="nonzero" fill="#ffffff" stroke="none" />
  <path d="M 262 887  C 265.08 887  267.5 889.42  267.5 892.5  C 267.5 895.58  265.08 898  262 898  C 258.92 898  256.5 895.58  256.5 892.5  C 256.5 889.42  258.92 887  262 887  Z " stroke-width="1" stroke="#797979" fill="none" />
  <path d="M 262 895.5  C 260.32 895.5  259 894.18  259 892.5  C 259 890.82  260.32 889.5  262 889.5  C 263.68 889.5  265 890.82  265 892.5  C 265 894.18  263.68 895.5  262 895.5  " fill-rule="nonzero" fill="#797979" stroke="none" />
</svg>