<?xml version="1.0" encoding="utf-8"?>
<svg version="1.1" xmlns:xlink="http://www.w3.org/1999/xlink" width="12px" height="12px" viewBox="160 887.5  12 12" xmlns="http://www.w3.org/2000/svg">
  <path d="M 166 887.5  C 169.36 887.5  172 890.14  172 893.5  C 172 896.86  169.36 899.5  166 899.5  C 162.64 899.5  160 896.86  160 893.5  C 160 890.14  162.64 887.5  166 887.5  Z " fill-rule="nonzero" fill="#ffffff" stroke="none" />
  <path d="M 166 888  C 169.08 888  171.5 890.42  171.5 893.5  C 171.5 896.58  169.08 899  166 899  C 162.92 899  160.5 896.58  160.5 893.5  C 160.5 890.42  162.92 888  166 888  Z " stroke-width="1" stroke="#797979" fill="none" />
  <path d="M 166 896.5  C 164.32 896.5  163 895.18  163 893.5  C 163 891.82  164.32 890.5  166 890.5  C 167.68 890.5  169 891.82  169 893.5  C 169 895.18  167.68 896.5  166 896.5  " fill-rule="nonzero" fill="#797979" stroke="none" />
</svg>