<?xml version="1.0" encoding="utf-8"?>
<svg version="1.1" xmlns:xlink="http://www.w3.org/1999/xlink" width="12px" height="12px" viewBox="166 735.5  12 12" xmlns="http://www.w3.org/2000/svg">
  <path d="M 172 735.5  C 175.36 735.5  178 738.14  178 741.5  C 178 744.86  175.36 747.5  172 747.5  C 168.64 747.5  166 744.86  166 741.5  C 166 738.14  168.64 735.5  172 735.5  Z " fill-rule="nonzero" fill="#ffffff" stroke="none" />
  <path d="M 172 736  C 175.08 736  177.5 738.42  177.5 741.5  C 177.5 744.58  175.08 747  172 747  C 168.92 747  166.5 744.58  166.5 741.5  C 166.5 738.42  168.92 736  172 736  Z " stroke-width="1" stroke="#797979" fill="none" />
  <path d="M 172 744.5  C 170.32 744.5  169 743.18  169 741.5  C 169 739.82  170.32 738.5  172 738.5  C 173.68 738.5  175 739.82  175 741.5  C 175 743.18  173.68 744.5  172 744.5  " fill-rule="nonzero" fill="#797979" stroke="none" />
</svg>