<?xml version="1.0" encoding="utf-8"?>
<svg version="1.1" xmlns:xlink="http://www.w3.org/1999/xlink" width="12px" height="12px" viewBox="262 734.5  12 12" xmlns="http://www.w3.org/2000/svg">
  <path d="M 268 734.5  C 271.36 734.5  274 737.14  274 740.5  C 274 743.86  271.36 746.5  268 746.5  C 264.64 746.5  262 743.86  262 740.5  C 262 737.14  264.64 734.5  268 734.5  Z " fill-rule="nonzero" fill="#ffffff" stroke="none" />
  <path d="M 268 735  C 271.08 735  273.5 737.42  273.5 740.5  C 273.5 743.58  271.08 746  268 746  C 264.92 746  262.5 743.58  262.5 740.5  C 262.5 737.42  264.92 735  268 735  Z " stroke-width="1" stroke="#797979" fill="none" />
  <path d="M 268 743.5  C 266.32 743.5  265 742.18  265 740.5  C 265 738.82  266.32 737.5  268 737.5  C 269.68 737.5  271 738.82  271 740.5  C 271 742.18  269.68 743.5  268 743.5  " fill-rule="nonzero" fill="#797979" stroke="none" />
</svg>