<?xml version="1.0" encoding="utf-8"?>
<svg version="1.1" xmlns:xlink="http://www.w3.org/1999/xlink" width="140px" height="32px" xmlns="http://www.w3.org/2000/svg">
  <defs>
    <mask fill="white" id="clip3">
      <path d="M 0 27  L 0 5  C 0 2.19999999999982  2.20000000000005 0  5 0  L 56.3333333333321 0  L 69.6666666666679 0  L 79 0  L 81.1751412429389 0  L 135 0  C 137.8 0  140 2.19999999999982  140 5  L 140 27  C 140 29.8000000000002  137.8 32  135 32  L 58.5762711864407 32  L 5 32  C 2.20000000000005 32  0 29.8000000000002  0 27  Z " fill-rule="evenodd" />
    </mask>
  </defs>
  <g transform="matrix(1 0 0 1 -614 -3797 )">
    <path d="M 0 27  L 0 5  C 0 2.19999999999982  2.20000000000005 0  5 0  L 56.3333333333321 0  L 69.6666666666679 0  L 79 0  L 81.1751412429389 0  L 135 0  C 137.8 0  140 2.19999999999982  140 5  L 140 27  C 140 29.8000000000002  137.8 32  135 32  L 58.5762711864407 32  L 5 32  C 2.20000000000005 32  0 29.8000000000002  0 27  Z " fill-rule="nonzero" fill="#ffffff" stroke="none" transform="matrix(1 0 0 1 614 3797 )" />
    <path d="M 0 27  L 0 5  C 0 2.19999999999982  2.20000000000005 0  5 0  L 56.3333333333321 0  L 69.6666666666679 0  L 79 0  L 81.1751412429389 0  L 135 0  C 137.8 0  140 2.19999999999982  140 5  L 140 27  C 140 29.8000000000002  137.8 32  135 32  L 58.5762711864407 32  L 5 32  C 2.20000000000005 32  0 29.8000000000002  0 27  Z " stroke-width="2" stroke="#797979" fill="none" transform="matrix(1 0 0 1 614 3797 )" mask="url(#clip3)" />
  </g>
</svg>