<?xml version="1.0" encoding="utf-8"?>
<svg version="1.1" xmlns:xlink="http://www.w3.org/1999/xlink" width="12px" height="12px" viewBox="319 748.5  12 12" xmlns="http://www.w3.org/2000/svg">
  <path d="M 325 748.5  C 328.36 748.5  331 751.14  331 754.5  C 331 757.86  328.36 760.5  325 760.5  C 321.64 760.5  319 757.86  319 754.5  C 319 751.14  321.64 748.5  325 748.5  Z " fill-rule="nonzero" fill="#ffffff" stroke="none" />
  <path d="M 325 749  C 328.08 749  330.5 751.42  330.5 754.5  C 330.5 757.58  328.08 760  325 760  C 321.92 760  319.5 757.58  319.5 754.5  C 319.5 751.42  321.92 749  325 749  Z " stroke-width="1" stroke="#797979" fill="none" />
  <path d="M 325 757.5  C 323.32 757.5  322 756.18  322 754.5  C 322 752.82  323.32 751.5  325 751.5  C 326.68 751.5  328 752.82  328 754.5  C 328 756.18  326.68 757.5  325 757.5  " fill-rule="nonzero" fill="#797979" stroke="none" />
</svg>