<?xml version="1.0" encoding="utf-8"?>
<svg version="1.1" xmlns:xlink="http://www.w3.org/1999/xlink" width="12px" height="12px" viewBox="126 451.5  12 12" xmlns="http://www.w3.org/2000/svg">
  <path d="M 132 451.5  C 135.36 451.5  138 454.14  138 457.5  C 138 460.86  135.36 463.5  132 463.5  C 128.64 463.5  126 460.86  126 457.5  C 126 454.14  128.64 451.5  132 451.5  Z " fill-rule="nonzero" fill="#ffffff" stroke="none" />
  <path d="M 132 452  C 135.08 452  137.5 454.42  137.5 457.5  C 137.5 460.58  135.08 463  132 463  C 128.92 463  126.5 460.58  126.5 457.5  C 126.5 454.42  128.92 452  132 452  Z " stroke-width="1" stroke="#797979" fill="none" />
  <path d="M 132 460.5  C 130.32 460.5  129 459.18  129 457.5  C 129 455.82  130.32 454.5  132 454.5  C 133.68 454.5  135 455.82  135 457.5  C 135 459.18  133.68 460.5  132 460.5  " fill-rule="nonzero" fill="#797979" stroke="none" />
</svg>