<?xml version="1.0" encoding="utf-8"?>
<svg version="1.1" xmlns:xlink="http://www.w3.org/1999/xlink" width="75px" height="32px" xmlns="http://www.w3.org/2000/svg">
  <defs>
    <mask fill="white" id="clip8">
      <path d="M 0 27  L 0 5  C 0 2.2  1.27906976744189 0  2.90697674418605 0  L 72.093023255814 0  C 73.7209302325581 0  75 2.2  75 5  L 75 27  C 75 29.8  73.7209302325581 32  72.093023255814 32  L 38.6904761904755 32  L 2.90697674418605 32  C 1.27906976744189 32  0 29.8  0 27  Z " fill-rule="evenodd" />
    </mask>
  </defs>
  <g transform="matrix(1 0 0 1 -624 -75 )">
    <path d="M 0 27  L 0 5  C 0 2.2  1.27906976744189 0  2.90697674418605 0  L 72.093023255814 0  C 73.7209302325581 0  75 2.2  75 5  L 75 27  C 75 29.8  73.7209302325581 32  72.093023255814 32  L 38.6904761904755 32  L 2.90697674418605 32  C 1.27906976744189 32  0 29.8  0 27  Z " fill-rule="nonzero" fill="#ffffff" stroke="none" transform="matrix(1 0 0 1 624 75 )" />
    <path d="M 0 27  L 0 5  C 0 2.2  1.27906976744189 0  2.90697674418605 0  L 72.093023255814 0  C 73.7209302325581 0  75 2.2  75 5  L 75 27  C 75 29.8  73.7209302325581 32  72.093023255814 32  L 38.6904761904755 32  L 2.90697674418605 32  C 1.27906976744189 32  0 29.8  0 27  Z " stroke-width="2" stroke="#797979" fill="none" transform="matrix(1 0 0 1 624 75 )" mask="url(#clip8)" />
  </g>
</svg>