<?xml version="1.0" encoding="utf-8"?>
<svg version="1.1" xmlns:xlink="http://www.w3.org/1999/xlink" width="12px" height="12px" viewBox="226 446.5  12 12" xmlns="http://www.w3.org/2000/svg">
  <path d="M 232 446.5  C 235.36 446.5  238 449.14  238 452.5  C 238 455.86  235.36 458.5  232 458.5  C 228.64 458.5  226 455.86  226 452.5  C 226 449.14  228.64 446.5  232 446.5  Z " fill-rule="nonzero" fill="#ffffff" stroke="none" />
  <path d="M 232 447  C 235.08 447  237.5 449.42  237.5 452.5  C 237.5 455.58  235.08 458  232 458  C 228.92 458  226.5 455.58  226.5 452.5  C 226.5 449.42  228.92 447  232 447  Z " stroke-width="1" stroke="#797979" fill="none" />
  <path d="M 232 455.5  C 230.32 455.5  229 454.18  229 452.5  C 229 450.82  230.32 449.5  232 449.5  C 233.68 449.5  235 450.82  235 452.5  C 235 454.18  233.68 455.5  232 455.5  " fill-rule="nonzero" fill="#797979" stroke="none" />
</svg>